<?xml version="1.0" encoding="UTF-8"?>
<svg id="Layer_1" data-name="Layer 1" xmlns="http://www.w3.org/2000/svg" viewBox="0 0 64 64">
  <defs>
    <style>
      .cls-1 {
        fill: #231f20;
      }

      .cls-2 {
        stroke-width: 1.88px;
      }

      .cls-2, .cls-3 {
        fill: none;
        stroke: #231f20;
        stroke-linecap: round;
        stroke-linejoin: round;
      }

      .cls-3 {
        stroke-width: 2px;
      }
    </style>
  </defs>
  <path class="cls-3" d="M57.28,33.6l-7.1,7.1-12.56-12.56c-1.15-1.14-2.64-1.71-4.14-1.71s-2.99.57-4.13,1.71c-2.28,2.29-2.28,5.99,0,8.27l12.56,12.56-9.91,9.9-21.07-21.07-4.2-4.2C.91,27.78.91,18.35,6.73,12.53c5.82-5.82,15.25-5.82,21.07,0l4.2,4.2,4.21-4.2c5.82-5.82,15.25-5.82,21.07,0s5.82,15.25,0,21.07Z"/>
  <polyline class="cls-3" points="6.73 12.53 13.85 14.7 12.66 20.15 18.42 22.57"/>
  <path class="cls-2" d="M51.26,42.24l-7.81,7.81c-.13.13-.33.13-.46,0l-1.08-1.08-12.56-12.56c-2.28-2.28-2.28-5.98,0-8.27,1.14-1.14,2.64-1.71,4.13-1.71s2.99.57,4.14,1.71l12.56,12.56,1.08,1.08c.12.13.12.34,0,.46Z"/>
  <line class="cls-3" x1="32.47" y1="38.66" x2="39.78" y2="31.36"/>
  <line class="cls-3" x1="39.32" y1="45.36" x2="46.63" y2="38.05"/>
  <g>
    <circle class="cls-1" cx="40" cy="34.84" r=".96"/>
    <circle class="cls-1" cx="42.96" cy="37.69" r=".96"/>
    <circle class="cls-1" cx="39.49" cy="38.27" r=".96"/>
    <circle class="cls-1" cx="36.02" cy="39.06" r=".96"/>
    <circle class="cls-1" cx="39.04" cy="41.85" r=".96"/>
  </g>
</svg>