<?xml version="1.0" encoding="UTF-8"?>
<svg id="Layer_1" data-name="Layer 1" xmlns="http://www.w3.org/2000/svg" viewBox="0 0 64 64">
  <defs>
    <style>
      .cls-1 {
        fill: #231f20;
      }

      .cls-2 {
        stroke-miterlimit: 10;
      }

      .cls-2, .cls-3 {
        fill: none;
        stroke: #231f20;
        stroke-width: 2px;
      }

      .cls-3 {
        stroke-linecap: round;
        stroke-linejoin: round;
      }
    </style>
  </defs>
  <path class="cls-3" d="M51.07,37.24c-.01,11.65-9.45,21.1-21.1,21.1s-21.09-9.45-21.1-21.1h42.2Z"/>
  <rect class="cls-3" x="8.87" y="37.23" width="42.2" height=".01"/>
  <path class="cls-3" d="M54.84,35.14c0,1.16-.94,2.1-2.1,2.1h-1.66s-42.2-.01-42.2-.01h0s-1.66.01-1.66.01c-1.16,0-2.1-.94-2.1-2.1s.94-2.11,2.1-2.11h45.53c1.16,0,2.1.96,2.1,2.11Z"/>
  <rect class="cls-3" x="8.87" y="37.23" width="42.2" height=".01"/>
  <path class="cls-3" d="M31.07,33.03h-3.16c-.16-3.43-4.04-8.05-9.87-11.38-1.71-.97-3.54-1.55-5.33-1.86-1.27-4.95-.6-9.52-.6-9.52,0,0,9.63.9,14.71,7.35,4.69,5.97,6.46,12.57,4.25,15.41Z"/>
  <path class="cls-3" d="M27.91,33.03H9.86C3.7,28.66,1.67,20.38,1.67,20.38c0,0,5.35-1.62,11.04-.6,1.79.31,3.63.9,5.33,1.86,5.83,3.33,9.72,7.95,9.87,11.38Z"/>
  <circle class="cls-1" cx="11.76" cy="24.58" r="1.25"/>
  <circle class="cls-1" cx="19.33" cy="17.13" r="1.25"/>
  <path class="cls-2" d="M30,37.23h16.97s-16.98.01-16.98.01c0-.01.01-.01.01-.01Z"/>
  <path class="cls-2" d="M62.3,12.55c0,1.4-.4,2.81-1.25,4.05l-11.22,16.43h-17.47l16.77-24.56c2.24-3.28,6.75-4.13,10.03-1.9,2.04,1.39,3.14,3.67,3.14,5.98Z"/>
  <path class="cls-3" d="M46.12,12.89s5.34,2.45,4.95,6.5c0,0-2.02-3.11-8.03-2"/>
  <path class="cls-3" d="M40.33,22s5.34,2.45,4.95,6.5c0,0-2.02-3.11-8.03-2"/>
</svg>