<?xml version="1.0" encoding="UTF-8"?>
<svg id="Layer_1" data-name="Layer 1" xmlns="http://www.w3.org/2000/svg" viewBox="0 0 64 64">
  <defs>
    <style>
      .cls-1 {
        fill: none;
        stroke: #231f20;
        stroke-linecap: round;
        stroke-linejoin: round;
        stroke-width: 2px;
      }
    </style>
  </defs>
  <path class="cls-1" d="M26.45,20.57C36.23-.53,27.78,2,27.78,2l-10.03,20.2-1.09,19.46-5.85,10.79"/>
  <path class="cls-1" d="M24.72,37.09l-.43-12.73s.96-6.2,4.08-1.22l2.37,13.33s2.25,9.97-5.13,18.39"/>
  <rect class="cls-1" x="14.34" y="44.29" width="5.23" height="25.16" rx="2.36" ry="2.36" transform="translate(-42.36 58.72) rotate(-75.18)"/>
  <path class="cls-1" d="M37.55,20.57c-9.79-21.1-1.34-18.56-1.34-18.56l10.03,20.2,1.09,19.46,5.85,10.79"/>
  <path class="cls-1" d="M39.28,37.09l.43-12.73s-.96-6.2-4.08-1.22l-2.37,13.33s-2.25,9.97,5.13,18.39"/>
  <rect class="cls-1" x="44.42" y="44.29" width="5.23" height="25.16" rx="2.36" ry="2.36" transform="translate(4.09 116.89) rotate(-104.82)"/>
</svg>