<?xml version="1.0" encoding="UTF-8"?>
<svg id="Layer_1" data-name="Layer 1" xmlns="http://www.w3.org/2000/svg" viewBox="0 0 64 64">
  <defs>
    <style>
      .cls-1 {
        fill: #231f20;
      }

      .cls-2 {
        fill: none;
        stroke: #231f20;
        stroke-linecap: round;
        stroke-linejoin: round;
        stroke-width: 2px;
      }
    </style>
  </defs>
  <path class="cls-2" d="M18.05,32.75c1.37.14,2.8-.43,3.7-1.48"/>
  <path class="cls-2" d="M10.34,28.27c2.05.22,4.14.08,6.15-.42"/>
  <path class="cls-2" d="M6.92,23.63c2.46.24,4.96.14,7.39-.3"/>
  <path class="cls-2" d="M3.61,15.85c2.62,1.19,5.35,2.13,8.15,2.81"/>
  <path class="cls-2" d="M42.89,24.91c-.18-5.16-4.13-9.63-8.84-11.74s-10.06-2.26-15.22-1.92c-3.23.21-6.5.6-9.68-.02S2.82,8.79,1.58,5.81c.65,6.75,1.66,13.79,5.61,19.3,5.61,7.83,16.37,10.87,25.81,8.99"/>
  <path class="cls-2" d="M14.92,54.54c-.03-1.35.94-2.66,2.23-3.02"/>
  <path class="cls-2" d="M12.65,50.64c1.35-.35,2.59-1.09,3.54-2.1"/>
  <circle class="cls-1" cx="51.28" cy="20.22" r="1.08"/>
  <path class="cls-2" d="M26.33,35.4c-1.71,6.57-11.71,11.72-18.47,12.25,4.79,2.34,7.74,7.39,9.11,12.55.98-5.63,4.48-10.78,9.36-13.76"/>
  <path class="cls-2" d="M26.86,46.62c3.89,1.31,8.14,1.74,12.14.8s7.72-3.34,9.86-6.85c2.2-3.59,2.61-7.96,4.17-11.87s5.23-8.27,9.39-7.62c-2.06-.86-4.26-1.28-6.1-2.38-1.11-.66-1.59-1.74-2.68-2.52-2.81-2-9.97,1.08-12.12,3.78"/>
</svg>