<?xml version="1.0" encoding="UTF-8"?>
<svg id="Layer_1" data-name="Layer 1" xmlns="http://www.w3.org/2000/svg" viewBox="0 0 64 64">
  <defs>
    <style>
      .cls-1 {
        stroke-width: 1.98px;
      }

      .cls-1, .cls-2 {
        fill: none;
        stroke: #231f20;
        stroke-linecap: round;
        stroke-linejoin: round;
      }

      .cls-2 {
        stroke-width: 2px;
      }
    </style>
  </defs>
  <path class="cls-2" d="M51.73,35.24s-.11,3.39,2.34,5.21c0,0-5.95.08-7.24-3.77-1.53.29-3.12.43-4.77.43h-.12c-1.09-7.6-9.57-13.51-19.88-13.56-.08-.55-.12-1.11-.12-1.66,0-8.41,9.01-15.22,20.12-15.22s20.12,6.81,20.12,15.22c0,5.76-4.22,10.76-10.45,13.35Z"/>
  <path class="cls-2" d="M42.06,38.77c0,8.41-9.01,15.22-20.12,15.22-1.64,0-3.24-.14-4.77-.43-1.29,3.86-7.24,3.77-7.24,3.77,2.45-1.82,2.34-5.21,2.34-5.21-6.24-2.59-10.45-7.59-10.45-13.35,0-8.41,9.01-15.22,20.12-15.22h.12c10.31.05,18.79,5.96,19.88,13.56.08.55.12,1.1.12,1.66Z"/>
  <path class="cls-2" d="M12.28,34.07c-.6,1.59-.98,3.27-.95,4.96s.49,3.4,1.47,4.79"/>
  <path class="cls-2" d="M17.37,34.35l.22,3.72c.04.67.08,1.35-.05,2.02-.1.51-.29,1-.49,1.48-.26.62-.63,1.3-1.28,1.45-1.15.27-1.2-1.74.22-1.83s2.99.71,3.72,2"/>
  <path class="cls-2" d="M14.27,35.14c2,.17,4.02.16,6.01-.02"/>
  <path class="cls-2" d="M26,34c-.55,2.06-.89,4.17-1.3,6.26-.16.82-.29,1.76.25,2.39.67.81,2.64.99,3.3.07"/>
  <path class="cls-1" d="M30.7,34.07c.24.17.44.39.61.63.49.71.68,1.59.67,2.46s-.21,1.71-.44,2.54"/>
  <path class="cls-2" d="M32.96,25.17l.96-.96c.11-.11.22-.22.36-.28.13-.06.28-.06.42-.07,2.02-.06,4.05-.08,6.07-.06.54,1.29,1.02,2.6,1.44,3.94"/>
  <path class="cls-1" d="M35.14,23.65c1.13-2.39,1.68-5.06,1.51-7.7h3.36v7.7"/>
  <path class="cls-2" d="M44.97,21.51l.57-.34c.37-.22.75-.44,1.16-.54s.89-.04,1.22.24c.31.27.43.71.52,1.11.22.92.42,1.85.8,2.71s.95,1.67,1.75,2.16"/>
  <path class="cls-2" d="M48.71,23.21c-.9-.07-1.84-.13-2.66.24-1.07.49-1.71,1.65-1.89,2.82-.03.21-.05.44.05.63.07.14.21.24.34.32.85.48,1.94.22,2.81-.23.77-.4,1.48-.93,2.07-1.56"/>
</svg>