<?xml version="1.0" encoding="UTF-8"?>
<svg id="Layer_1" data-name="Layer 1" xmlns="http://www.w3.org/2000/svg" viewBox="0 0 64 64">
  <defs>
    <style>
      .cls-1 {
        fill: none;
        stroke: #231f20;
        stroke-linecap: round;
        stroke-linejoin: round;
        stroke-width: 2px;
      }
    </style>
  </defs>
  <path class="cls-1" d="M37.03,42.24c-.45.12-.91.22-1.38.3.41-.17.88-.28,1.38-.3Z"/>
  <path class="cls-1" d="M52.12,22.76c0,9.37-6.42,17.25-15.09,19.48-.51.02-.97.13-1.38.3-3.39,1.42-3.65,7.4-3.65,9.23,0,.33.01.53.01.53,0,5.55-4.5,10.05-10.06,10.05s-10.06-4.49-10.06-10.05v-29.54c0-11.11,9.01-20.12,20.12-20.12s20.12,9.01,20.12,20.12Z"/>
  <path class="cls-1" d="M43.73,23.18c0-6.48-5.25-11.73-11.73-11.73s-11.73,5.25-11.73,11.73v11.73s6.59,2.83,0,6.22c-.08,1.35-.3,2.72.07,4.01s1.28,2.52,2.58,2.89,2.91-.4,3.13-1.74"/>
  <path class="cls-1" d="M32,11.45c6.48,0,11.73,5.25,11.73,11.73s-5.25,11.73-11.73,11.73"/>
  <path class="cls-1" d="M20.53,21.75c1.93-1.44,4.3-2.4,6.7-2.31s4.83,1.31,6.03,3.4"/>
</svg>