<?xml version="1.0" encoding="UTF-8"?>
<svg id="Layer_1" data-name="Layer 1" xmlns="http://www.w3.org/2000/svg" viewBox="0 0 64 64">
  <defs>
    <style>
      .cls-1 {
        fill: none;
        stroke: #231f20;
        stroke-linecap: round;
        stroke-linejoin: round;
        stroke-width: 2px;
      }
    </style>
  </defs>
  <path class="cls-1" d="M1.8,59.61c-.66-8.19,3.98-16.56,11.27-20.35,3.71-1.93,7.88-2.7,11.95-3.65,3.59-.84,7.14-1.82,10.65-2.95,5.08-1.64,10.55-4.02,12.75-8.89"/>
  <path class="cls-1" d="M54.66,14.87c-2.56,5.3-6.1,8.89-6.1,8.89,0,0,.61-5.01,3.17-10.31,2.56-5.3,6.1-8.89,6.1-8.89,0,0-.61,5.01-3.17,10.31Z"/>
  <path class="cls-1" d="M45.08,20.19c-1.33,5.74-4,10.02-4,10.02,0,0-.51-5.02.82-10.75s4-10.02,4-10.02c0,0,.51,5.02-.82,10.75Z"/>
  <path class="cls-1" d="M36.7,21.98c-.49,5.74-2.5,10.26-2.5,10.26,0,0-1.2-4.79-.71-10.53s2.5-10.26,2.5-10.26c0,0,1.2,4.79.71,10.53Z"/>
  <path class="cls-1" d="M27.87,25.1c-.2,5.25-1.82,9.45-1.82,9.45,0,0-1.29-4.31-1.08-9.56.2-5.25,1.82-9.45,1.82-9.45,0,0,1.29,4.31,1.08,9.56Z"/>
  <path class="cls-1" d="M17.49,28.32c.49,5.23-.57,9.61-.57,9.61,0,0-1.84-4.11-2.33-9.34-.49-5.23.57-9.61.57-9.61,0,0,1.84,4.11,2.33,9.34Z"/>
  <path class="cls-1" d="M7.68,34.75c1.03,4.19.35,7.97.35,7.97,0,0-2.35-3.03-3.38-7.22s-.35-7.97-.35-7.97c0,0,2.35,3.03,3.38,7.22Z"/>
  <path class="cls-1" d="M51.73,31.07c-5.83.79-10.78-.18-10.78-.18,0,0,4.51-2.25,10.35-3.04,5.83-.79,10.78.18,10.78.18,0,0-4.51,2.25-10.35,3.04Z"/>
  <path class="cls-1" d="M43.5,39.03c-5.2-2.49-8.72-5.95-8.72-5.95,0,0,4.91.56,10.11,3.05,5.2,2.49,8.72,5.95,8.72,5.95,0,0-4.91-.56-10.11-3.05Z"/>
  <path class="cls-1" d="M32.9,42.63c-4-3.41-6.3-7.28-6.3-7.28,0,0,4.19,1.66,8.18,5.06,4,3.41,6.3,7.28,6.3,7.28,0,0-4.19-1.66-8.18-5.06Z"/>
  <path class="cls-1" d="M22.19,46.24c-3.3-4.09-4.85-8.32-4.85-8.32,0,0,3.81,2.4,7.11,6.49s4.85,8.32,4.85,8.32c0,0-3.81-2.4-7.11-6.49Z"/>
  <path class="cls-1" d="M12.92,48.54c-3.17-2.94-4.68-6.46-4.68-6.46,0,0,3.63,1.24,6.8,4.17,3.17,2.94,4.68,6.46,4.68,6.46,0,0-3.63-1.24-6.8-4.17Z"/>
</svg>