<?xml version="1.0" encoding="UTF-8"?>
<svg id="Layer_1" data-name="Layer 1" xmlns="http://www.w3.org/2000/svg" viewBox="0 0 64 64">
  <defs>
    <style>
      .cls-1 {
        fill: none;
        stroke: #231f20;
        stroke-linecap: round;
        stroke-linejoin: round;
        stroke-width: 2px;
      }
    </style>
  </defs>
  <path class="cls-1" d="M36.78,25v36.89h-7.89v-16.04l-10.97-15.76c.1.01.19.01.3.01,1.27,0,2.33-.8,2.73-1.93l7.94,11.58v-14.88c1.05,1.01,2.46,1.62,4.02,1.62s2.84-.56,3.87-1.49Z"/>
  <path class="cls-1" d="M58.38,31.47c0,5.62-4.55,10.17-10.16,10.17-1.8,0-3.5-.47-4.96-1.3-1.06,3.19-3.45,5.78-6.49,7.15v-22.49c-1.04.93-2.38,1.49-3.87,1.49s-2.97-.61-4.02-1.62v14.88l-7.94-11.58c-.4,1.13-1.46,1.93-2.73,1.93-.1,0-.19,0-.3-.01l10.97,15.76v2.32c-3.89-.98-7.03-3.86-8.38-7.59-1.35.67-2.88,1.05-4.49,1.05-5.61,0-10.17-4.55-10.17-10.17,0-2.23.73-4.3,1.94-5.98-1.39-1.74-2.21-3.94-2.21-6.33,0-5.62,4.56-10.17,10.17-10.17,1.8,0,3.5.47,4.96,1.3,1.59-4.77,6.1-8.21,11.41-8.21s9.66,3.32,11.35,7.97c1.35-.67,2.88-1.05,4.49-1.05,5.61,0,10.17,4.55,10.17,10.17,0,2.24-.73,4.3-1.96,5.98,1.39,1.74,2.21,3.95,2.21,6.33Z"/>
  <line class="cls-1" x1="20.95" y1="28.18" x2="21.19" y2="26.72"/>
  <line class="cls-1" x1="17.92" y1="30.1" x2="16.13" y2="29.85"/>
  <line class="cls-1" x1="28.89" y1="24.88" x2="27.93" y2="23.58"/>
  <line class="cls-1" x1="36.78" y1="25" x2="38.01" y2="23.58"/>
</svg>